HIERARCHY
ROOT Hips
{
 OFFSET 0.000000 0.000000 0.000000
 CHANNELS 6 Xposition Yposition Zposition Yrotation Xrotation Zrotation
 JOINT Chest
 {
  OFFSET 0.000000 9.585900 0.002600
  CHANNELS 3 Yrotation Xrotation Zrotation
  JOINT Chest2
  {
   OFFSET 0.000000 9.601200 -0.005300
   CHANNELS 3 Yrotation Xrotation Zrotation
   JOINT Chest3
   {
    OFFSET 0.000000 9.561800 0.000000
    CHANNELS 3 Yrotation Xrotation Zrotation
    JOINT Chest4
    {
     OFFSET 0.000000 9.552100 0.000000
     CHANNELS 3 Yrotation Xrotation Zrotation
     JOINT Neck
     {
      OFFSET 0.000000 14.453000 0.000000
      CHANNELS 3 Yrotation Xrotation Zrotation
      JOINT Head
      {
       OFFSET 0.000000 8.936500 -0.011300
       CHANNELS 3 Yrotation Xrotation Zrotation
       End Site
       {
        OFFSET 0.000000 17.073600 -0.006000
       }
      }
     }
     JOINT RightCollar
     {
      OFFSET -2.921100 9.558500 0.000000
      CHANNELS 3 Yrotation Xrotation Zrotation
      JOINT RightShoulder
      {
       OFFSET -13.519700 0.000000 0.000000
       CHANNELS 3 Yrotation Xrotation Zrotation
       JOINT RightElbow
       {
        OFFSET 0.000000 -29.696600 0.000000
        CHANNELS 3 Yrotation Xrotation Zrotation
        JOINT RightWrist
        {
         OFFSET 0.000000 -24.004700 0.000000
         CHANNELS 3 Yrotation Xrotation Zrotation
         End Site
         {
          OFFSET 0.000000 -17.728500 0.000000
         }
        }
       }
      }
     }
     JOINT LeftCollar
     {
      OFFSET 2.921100 9.558500 0.000000
      CHANNELS 3 Yrotation Xrotation Zrotation
      JOINT LeftShoulder
      {
       OFFSET 13.519700 0.000000 0.000000
       CHANNELS 3 Yrotation Xrotation Zrotation
       JOINT LeftElbow
       {
        OFFSET 0.000000 -29.696600 0.000000
        CHANNELS 3 Yrotation Xrotation Zrotation
        JOINT LeftWrist
        {
         OFFSET 0.000000 -24.004700 0.000000
         CHANNELS 3 Yrotation Xrotation Zrotation
         End Site
         {
          OFFSET 0.000000 -17.728500 0.000000
         }
        }
       }
      }
     }
    }
   }
  }
 }
 JOINT RightHip
 {
  OFFSET -7.771700 -0.012900 -0.001300
  CHANNELS 3 Yrotation Xrotation Zrotation
  JOINT RightKnee
  {
   OFFSET 0.000000 -40.869800 0.001200
   CHANNELS 3 Yrotation Xrotation Zrotation
   JOINT RightAnkle
   {
    OFFSET 0.000000 -39.717900 0.002100
    CHANNELS 3 Yrotation Xrotation Zrotation
    JOINT RightToe
    {
     OFFSET 0.000000 -4.965400 11.033500
     CHANNELS 3 Yrotation Xrotation Zrotation
     End Site
     {
      OFFSET 0.000000 -1.423100 5.872300
     }
    }
   }
  }
 }
 JOINT LeftHip
 {
  OFFSET 7.771700 -0.012900 -0.001300
  CHANNELS 3 Yrotation Xrotation Zrotation
  JOINT LeftKnee
  {
   OFFSET 0.000000 -40.869800 0.001200
   CHANNELS 3 Yrotation Xrotation Zrotation
   JOINT LeftAnkle
   {
    OFFSET 0.000000 -39.717900 0.002100
    CHANNELS 3 Yrotation Xrotation Zrotation
    JOINT LeftToe
    {
     OFFSET 0.000000 -4.965400 11.033500
     CHANNELS 3 Yrotation Xrotation Zrotation
     End Site
     {
      OFFSET 0.000000 -1.423100 5.872300
     }
    }
   }
  }
 }
}
MOTION
Frames: 14
Frame Time: 0.008333
-218.868687 59.747247 -66.822148 158.889806 -30.631848 2.665904 2.124961 16.198187 2.400978 0.173795 1.634495 0.216574 0.294098 2.732462 0.365026 1.772471 14.327236 2.112869 2.852639 20.842518 -0.366104 3.135747 -3.527566 -1.043493 5.186891 7.209660 -1.702422 11.551632 -15.637626 -13.070943 47.391573 -60.553145 -33.865259 11.947206 8.576581 -20.877520 -8.144813 1.572506 -7.323407 -3.513609 -12.719618 6.751622 -63.243317 -45.743703 51.816630 -8.825058 2.525120 16.503326 3.750886 -40.107550 7.451797 -26.876779 67.128961 -29.084464 -3.003247 -1.448575 1.670700 0.057460 -0.055160 -0.061730 10.545780 -39.451040 0.967323 22.021703 60.788812 23.386559 -16.021827 -14.207110 -0.494264 -0.022449 0.153583 -0.026246
-218.877042 59.758113 -66.806171 158.862980 -30.617547 2.700241 2.125268 16.256476 2.386692 0.175012 1.645075 0.217971 0.296041 2.749401 0.367321 1.778716 14.366576 2.119386 3.007625 20.709766 -0.494242 3.331152 -3.672067 -1.216242 5.189786 7.127080 -1.736421 11.438241 -15.453179 -12.903815 47.742434 -60.714945 -34.314721 11.964646 8.563473 -20.934702 -8.194404 1.534087 -7.315255 -3.510682 -12.637776 6.806962 -63.460802 -45.828439 52.114170 -8.833554 2.569260 16.537709 3.752562 -40.114672 7.437408 -26.831015 67.109419 -29.048416 -2.998910 -1.429606 1.657805 0.067002 -0.057404 -0.062618 10.580956 -39.441717 0.933229 21.981697 60.758321 23.347307 -16.025890 -14.211926 -0.494207 -0.001042 0.151222 -0.021228
-218.881303 59.768469 -66.789480 158.813500 -30.594180 2.726893 2.151417 16.307297 2.390150 0.176098 1.654829 0.219005 0.306252 2.717190 0.362766 1.777698 14.450547 2.131319 3.160758 20.565928 -0.624044 3.525076 -3.828372 -1.390349 5.188445 7.100773 -1.760932 11.356860 -15.337502 -12.769547 48.149267 -60.841982 -34.814749 11.988104 8.576017 -20.961847 -8.236547 1.495964 -7.302865 -3.510462 -12.555233 6.853191 -63.678156 -45.901265 52.417342 -8.817167 2.610210 16.555857 3.760805 -40.129852 7.444112 -26.801072 67.069768 -29.009646 -3.012217 -1.356941 1.612808 0.108064 -0.105774 -0.031535 10.611298 -39.446642 0.925904 21.940506 60.733977 23.296507 -15.930628 -14.247704 -0.472802 -0.035738 0.171051 -0.045155
-218.879124 59.776315 -66.768351 158.778071 -30.542174 2.706028 2.176329 16.327067 2.431533 0.187612 1.624433 0.215705 0.307953 2.725290 0.364676 1.772227 14.529921 2.137086 3.314400 20.414198 -0.756582 3.720345 -3.992668 -1.567638 5.184305 7.064905 -1.784544 11.303584 -15.232254 -12.649685 48.590099 -60.934890 -35.337754 12.011421 8.612567 -20.971232 -8.272115 1.456845 -7.282917 -3.501029 -12.473195 6.884505 -63.892218 -45.963703 52.714554 -8.753311 2.646421 16.550519 3.696138 -40.171325 7.506433 -26.808326 66.997168 -28.985154 -2.983767 -1.306403 1.557805 0.150031 -0.129061 -0.009250 10.590924 -39.485166 0.976408 21.898408 60.707273 23.233017 -15.853318 -14.282521 -0.455641 -0.063842 0.183925 -0.060587
-218.882122 59.785327 -66.752952 158.729863 -30.497313 2.737957 2.196436 16.354323 2.423039 0.183385 1.653040 0.218036 0.300354 2.789678 0.370310 1.786456 14.491593 2.124662 3.469140 20.258392 -0.894066 3.918206 -4.160440 -1.750615 5.176875 7.004887 -1.809965 11.275998 -15.126849 -12.542304 48.984150 -60.985961 -35.789335 12.023218 8.636316 -20.972658 -8.278455 1.376781 -7.269626 -3.496938 -12.350652 6.908799 -64.078794 -46.028034 52.979429 -8.794550 2.669301 16.576203 3.685772 -40.202461 7.503750 -26.767749 66.964531 -28.942266 -2.948499 -1.294965 1.533078 0.158898 -0.126868 -0.010442 10.552212 -39.496646 1.020799 21.893038 60.668249 23.149614 -15.831807 -14.283072 -0.454519 -0.042994 0.179408 -0.050393
-218.883467 59.795691 -66.742145 158.723950 -30.468338 2.753801 2.188039 16.360430 2.408733 0.165283 1.713308 0.223401 0.301296 2.806057 0.370563 1.789921 14.499527 2.117316 3.625310 20.102501 -1.037474 4.119457 -4.327050 -1.940518 5.172796 6.942418 -1.835012 11.269537 -15.043032 -12.456424 49.322498 -61.024405 -36.181074 12.089543 8.692234 -20.994988 -8.278696 1.300964 -7.255395 -3.474752 -12.236483 6.918591 -64.224124 -46.103198 53.194758 -8.856650 2.688467 16.600997 3.608257 -40.210666 7.488559 -26.643666 66.947363 -28.827371 -2.887573 -1.284948 1.512425 0.143163 -0.127646 -0.034196 10.520052 -39.505914 1.039233 21.874586 60.638544 23.082367 -15.842080 -14.262125 -0.456784 0.035192 0.158914 -0.023935
-218.878429 59.805096 -66.731011 158.710615 -30.430264 2.740991 2.174543 16.404507 2.427541 0.186395 1.669272 0.217499 0.285586 2.852832 0.374984 1.784093 14.528459 2.110714 3.782228 19.949953 -1.187220 4.323621 -4.488708 -2.137753 5.191713 6.857952 -1.859413 11.261782 -14.958744 -12.389341 49.786982 -61.033926 -36.705392 12.102632 8.789524 -20.960520 -8.286700 1.261940 -7.237873 -3.423774 -12.163604 6.914385 -64.431487 -46.143974 53.452708 -8.858332 2.720407 16.611497 3.594551 -40.244629 7.505505 -26.682034 66.919757 -28.822067 -2.877886 -1.266734 1.476406 0.168846 -0.144580 -0.023940 10.482856 -39.533392 1.085856 21.880094 60.612081 23.044803 -15.810120 -14.246325 -0.461228 -0.033421 0.142321 -0.026599
-218.880030 59.814843 -66.725946 158.701085 -30.392835 2.779340 2.137465 16.447856 2.390666 0.185781 1.678104 0.217045 0.291641 2.845694 0.372181 1.775392 14.555309 2.102341 3.938726 19.803999 -1.343096 4.529429 -4.641743 -2.341814 5.192330 6.807831 -1.883562 11.289522 -14.927873 -12.357468 50.146311 -61.027263 -37.084288 12.110579 8.871675 -20.943959 -8.308929 1.260892 -7.201782 -3.356715 -12.202879 6.885366 -64.563231 -46.141386 53.615548 -8.844419 2.753690 16.598161 3.592032 -40.265621 7.451840 -26.639803 66.906113 -28.753080 -2.859693 -1.271114 1.432676 0.169037 -0.150446 0.004922 10.512283 -39.557824 1.055849 21.872586 60.599052 23.025056 -15.981676 -14.223434 -0.491560 -0.114962 0.107839 -0.014816
-218.882996 59.825730 -66.727339 158.674747 -30.368948 2.849432 2.113173 16.488139 2.328426 0.176737 1.700974 0.218826 0.298714 2.839015 0.368317 1.765525 14.579819 2.092350 4.094496 19.666270 -1.503419 4.736140 -4.784302 -2.550918 5.190314 6.753991 -1.905817 11.328877 -14.913790 -12.345812 50.327099 -61.032952 -37.277106 12.173717 8.936101 -20.930882 -8.299407 1.225864 -7.169089 -3.277794 -12.109588 6.850620 -64.750728 -46.203309 53.845776 -8.859140 2.780591 16.604049 3.609249 -40.254975 7.337053 -26.446699 66.911283 -28.553529 -2.790131 -1.302653 1.433745 0.113018 -0.124165 -0.026384 10.540669 -39.551473 1.022537 21.879938 60.584490 22.991948 -16.123046 -14.217738 -0.513138 -0.156730 0.086431 -0.008600
-218.875459 59.835365 -66.728085 158.646460 -30.340294 2.860905 2.107441 16.519867 2.326564 0.184911 1.691577 0.216808 0.288083 2.862774 0.368177 1.753761 14.602157 2.080172 4.250169 19.537562 -1.668679 4.944686 -4.915508 -2.765804 5.201120 6.687768 -1.924739 11.362383 -14.916684 -12.345781 50.542455 -61.004766 -37.459363 12.178665 9.013193 -20.922400 -8.275489 1.174545 -7.139725 -3.194886 -12.010879 6.811671 -64.926850 -46.254826 54.052882 -8.875285 2.799183 16.603466 3.613731 -40.267494 7.312056 -26.359835 66.912820 -28.443124 -2.757070 -1.308042 1.434892 0.080057 -0.127027 -0.039693 10.536842 -39.561679 1.047301 21.887105 60.573842 22.963303 -16.062209 -14.220010 -0.504341 -0.111917 0.078197 -0.014169
-218.861765 59.845610 -66.733129 158.646636 -30.330309 2.832490 2.082866 16.564477 2.352131 0.183761 1.696440 0.215960 0.286125 2.870577 0.366643 1.740522 14.621951 2.068424 4.404355 19.420292 -1.841946 5.154421 -5.032753 -2.989569 5.219776 6.622350 -1.944499 11.389671 -14.916445 -12.348171 50.715274 -60.974339 -37.585578 12.139722 9.055949 -20.939495 -8.248252 1.124144 -7.110278 -3.115330 -11.951248 6.766307 -65.050178 -46.285838 54.199067 -8.889286 2.812856 16.609759 3.578538 -40.265707 7.311088 -26.295148 66.920633 -28.323843 -2.707315 -1.352468 1.415397 0.050161 -0.098308 -0.053369 10.481184 -39.556434 1.116867 21.903403 60.568761 22.927845 -15.969230 -14.221674 -0.480380 -0.042012 0.067739 -0.013785
-218.856099 59.853284 -66.741243 158.589447 -30.294523 2.883466 2.110305 16.558687 2.326283 0.156361 1.738698 0.220537 0.293324 2.862033 0.364135 1.728556 14.637998 2.059697 4.553184 19.317644 -2.024430 5.361473 -5.132657 -3.222822 5.251569 6.557480 -1.966429 11.401824 -14.905735 -12.398129 50.758675 -60.991712 -37.576888 12.130306 9.085048 -20.961666 -8.219789 1.077532 -7.084564 -3.035803 -11.899090 6.715616 -65.173034 -46.312302 54.325179 -8.902142 2.826943 16.627562 3.649301 -40.287716 7.231867 -26.223230 66.943632 -28.181156 -2.723122 -1.341676 1.364743 0.073005 -0.130273 -0.042465 10.545787 -39.574164 1.105122 21.906686 60.580777 22.899432 -15.961051 -14.237255 -0.462463 -0.073829 0.063986 -0.021719
-218.846088 59.860455 -66.752923 158.600273 -30.272085 2.882899 2.084138 16.561274 2.319557 0.145978 1.750941 0.222336 0.292131 2.865841 0.363481 1.721045 14.647795 2.054350 4.686289 19.243513 -2.209229 5.563843 -5.212963 -3.464506 5.269957 6.514849 -1.983681 11.412964 -14.915264 -12.437519 50.748040 -60.992322 -37.504188 12.158816 9.131732 -20.982928 -8.200222 1.048251 -7.061036 -2.989559 -11.884401 6.676097 -65.222490 -46.322829 54.384689 -8.894930 2.868464 16.681576 3.652917 -40.306990 7.161595 -26.142030 67.005285 -27.977620 -2.774380 -1.388396 1.268878 0.126569 -0.131103 -0.028676 10.544026 -39.587426 1.115473 21.874527 60.583986 22.862032 -16.031933 -14.229096 -0.481314 -0.109766 0.050040 -0.014677
-218.839230 59.863188 -66.763557 158.547525 -30.211173 2.929493 2.090360 16.549284 2.294538 0.172695 1.718409 0.215868 0.291775 2.866926 0.363255 1.718813 14.650702 2.052592 4.796977 19.207801 -2.391149 5.762718 -5.272422 -3.714632 5.253106 6.500266 -1.989735 11.441546 -14.926196 -12.489231 50.685859 -61.011806 -37.404705 12.206438 9.207488 -20.929126 -8.197601 1.044294 -7.041908 -2.908483 -11.820089 6.626219 -65.325911 -46.343187 54.499948 -8.890155 2.874043 16.690442 3.728740 -40.366793 7.080907 -26.069164 67.041345 -27.857158 -2.747750 -1.403663 1.259265 0.098319 -0.131874 -0.019354 10.617877 -39.634874 1.090967 21.885220 60.596433 22.860121 -16.018089 -14.229296 -0.479950 -0.099461 0.036131 -0.013722
